<?xml version="1.0" encoding="utf-8"?>
<svg xmlns="http://www.w3.org/2000/svg"
    xmlns:xlink="http://www.w3.org/1999/xlink" width="1000" height="720" >
<defs>

<style type="text/css"><![CDATA[

line {
    stroke: #000;
    stroke-width: 5px;
    fill: none;
}


]]></style>
</defs>
<path d="M475.8154018530391,496.6957101772226 L475.8154018530391,496.6957101772226 L475.8154018530391,538.2729071874289 L700.2578494336457,538.2729071874289 L700.2578494336457,496.6957101772226" style="fill: white"/>
<path d="M252.1082778884034,254.68297886701305 L252.1082778884034,254.68297886701305 L252.1082778884034,141.48547730648463 L162.0870882090338,141.48547730648463 L162.0870882090338,254.68297886701305" style="fill: blue"/>
<path d="M252.1082778884034,141.48547730648463 L252.1082778884034,141.48547730648463 L252.1082778884034,254.68297886701305 L557.100817758166,254.68297886701305 L557.100817758166,141.48547730648463" style="fill: yellow"/>
<path d="M252.1082778884034,254.68297886701305 L252.1082778884034,254.68297886701305 L0.0,254.68297886701305 L0.0,283.8924019842435 L252.1082778884034,283.8924019842435" style="fill: yellow"/>
<path d="M475.8154018530391,560.4711882720186 L475.8154018530391,560.4711882720186 L475.8154018530391,578.5053861019401 L1000.0,578.5053861019401 L1000.0,560.4711882720186" style="fill: white"/>
<path d="M252.1082778884034,367.11434587404887 L252.1082778884034,367.11434587404887 L252.1082778884034,396.0709939805542 L700.2578494336457,396.0709939805542 L700.2578494336457,367.11434587404887" style="fill: blue"/>
<path d="M162.0870882090338,254.68297886701305 L162.0870882090338,254.68297886701305 L162.0870882090338,141.48547730648463 L0.0,141.48547730648463 L0.0,254.68297886701305" style="fill: red"/>
<path d="M31.700248147880416,720.0 L31.700248147880416,720.0 L475.8154018530391,720.0 L475.8154018530391,701.0020190152596 L31.700248147880416,701.0020190152596" style="fill: white"/>
<path d="M475.8154018530391,624.2646921026201 L475.8154018530391,624.2646921026201 L31.700248147880416,624.2646921026201 L31.700248147880416,676.1099363219314 L475.8154018530391,676.1099363219314" style="fill: red"/>
<path d="M162.0870882090338,141.48547730648463 L162.0870882090338,141.48547730648463 L557.100817758166,141.48547730648463 L557.100817758166,54.00168707082241 L162.0870882090338,54.00168707082241" style="fill: yellow"/>
<path d="M0.0,367.11434587404887 L0.0,367.11434587404887 L0.0,396.0709939805542 L252.1082778884034,396.0709939805542 L252.1082778884034,367.11434587404887" style="fill: blue"/>
<path d="M0.0,538.2729071874289 L0.0,538.2729071874289 L0.0,720.0 L31.700248147880416,720.0 L31.700248147880416,538.2729071874289" style="fill: white"/>
<path d="M475.8154018530391,538.2729071874289 L475.8154018530391,538.2729071874289 L475.8154018530391,496.6957101772226 L210.3206053075452,496.6957101772226 L210.3206053075452,538.2729071874289" style="fill: blue"/>
<path d="M557.100817758166,15.863501588916527 L557.100817758166,15.863501588916527 L0.0,15.863501588916527 L0.0,28.52849755299113 L557.100817758166,28.52849755299113" style="fill: blue"/>
<path d="M700.2578494336456,433.04717650250984 L700.2578494336456,433.04717650250984 L590.5104117873257,433.04717650250984 L590.5104117873257,496.6957101772226 L700.2578494336457,496.6957101772226" style="fill: white"/>
<path d="M1000.0,367.11434587404887 L1000.0,367.11434587404887 L700.2578494336457,367.11434587404887 L700.2578494336458,407.8562288739186 L1000.0,407.8562288739186" style="fill: white"/>
<path d="M475.8154018530391,610.3366587671746 L475.8154018530391,610.3366587671746 L31.700248147880416,610.3366587671746 L31.700248147880416,624.2646921026201 L475.8154018530391,624.2646921026201" style="fill: blue"/>
<path d="M700.2578494336456,407.8562288739186 L700.2578494336456,407.8562288739186 L210.3206053075452,407.8562288739186 L210.3206053075452,433.04717650250984 L700.2578494336456,433.04717650250984" style="fill: white"/>
<path d="M557.100817758166,254.68297886701305 L557.100817758166,254.68297886701305 L252.1082778884034,254.68297886701305 L252.1082778884034,280.0483161873657 L557.100817758166,280.0483161873657" style="fill: red"/>
<path d="M1000.0,162.59989235717416 L1000.0,162.59989235717416 L557.100817758166,162.59989235717416 L557.100817758166,367.11434587404887 L1000.0,367.11434587404887" style="fill: blue"/>
<path d="M475.8154018530391,560.4711882720186 L475.8154018530391,560.4711882720186 L707.0404699196499,560.4711882720186 L707.0404699196499,538.2729071874289 L475.8154018530391,538.2729071874289" style="fill: white"/>
<path d="M0.0,0.0 L0.0,0.0 L0.0,15.863501588916527 L557.100817758166,15.863501588916527 L557.100817758166,0.0" style="fill: yellow"/>
<path d="M1000.0,407.8562288739186 L1000.0,407.8562288739186 L700.2578494336458,407.8562288739186 L700.2578494336457,496.6957101772226 L1000.0,496.6957101772226" style="fill: white"/>
<path d="M557.100817758166,367.11434587404887 L557.100817758166,367.11434587404887 L557.100817758166,280.0483161873657 L252.1082778884034,280.0483161873657 L252.1082778884034,367.11434587404887" style="fill: white"/>
<path d="M210.3206053075452,407.8562288739186 L210.3206053075452,407.8562288739186 L700.2578494336456,407.8562288739186 L700.2578494336457,396.0709939805542 L210.3206053075452,396.0709939805542" style="fill: white"/>
<path d="M252.1082778884034,367.11434587404887 L252.1082778884034,367.11434587404887 L252.1082778884034,283.8924019842435 L0.0,283.8924019842435 L0.0,367.11434587404887" style="fill: white"/>
<path d="M210.3206053075452,433.04717650250984 L210.3206053075452,433.04717650250984 L210.3206053075452,496.6957101772226 L590.5104117873257,496.6957101772226 L590.5104117873257,433.04717650250984" style="fill: blue"/>
<path d="M0.0,28.52849755299113 L0.0,28.52849755299113 L0.0,141.48547730648463 L162.0870882090338,141.48547730648463 L162.0870882090338,28.52849755299113" style="fill: white"/>
<path d="M0.0,496.6957101772226 L0.0,496.6957101772226 L210.3206053075452,496.6957101772226 L210.3206053075452,460.33665885289156 L0.0,460.33665885289156" style="fill: white"/>
<path d="M475.8154018530391,676.1099363219314 L475.8154018530391,676.1099363219314 L31.700248147880416,676.1099363219314 L31.700248147880416,701.0020190152596 L475.8154018530391,701.0020190152596" style="fill: red"/>
<path d="M1000.0,687.9908571194145 L1000.0,687.9908571194145 L1000.0,624.2646921026201 L475.81540185303913,624.2646921026201 L475.8154018530391,687.9908571194145" style="fill: white"/>
<path d="M162.0870882090338,28.52849755299113 L162.0870882090338,28.52849755299113 L162.0870882090338,54.00168707082241 L557.100817758166,54.00168707082241 L557.100817758166,28.52849755299113" style="fill: red"/>
<path d="M0.0,538.2729071874289 L0.0,538.2729071874289 L210.3206053075452,538.2729071874289 L210.3206053075452,496.6957101772226 L0.0,496.6957101772226" style="fill: blue"/>
<path d="M475.8154018530391,687.9908571194145 L475.8154018530391,687.9908571194145 L475.8154018530391,720.0 L777.5476817841408,720.0 L777.5476817841408,687.9908571194145" style="fill: blue"/>
<path d="M0.0,460.33665885289156 L0.0,460.33665885289156 L210.3206053075452,460.33665885289156 L210.3206053075452,396.0709939805542 L0.0,396.0709939805542" style="fill: white"/>
<path d="M475.81540185303913,624.2646921026201 L475.81540185303913,624.2646921026201 L1000.0,624.2646921026201 L1000.0,578.5053861019401 L475.8154018530391,578.5053861019401" style="fill: red"/>
<path d="M31.700248147880416,610.3366587671746 L31.700248147880416,610.3366587671746 L475.8154018530391,610.3366587671746 L475.8154018530391,538.2729071874289 L31.700248147880416,538.2729071874289" style="fill: white"/>
<path d="M1000.0,0.0 L1000.0,0.0 L557.100817758166,0.0 L557.100817758166,162.59989235717416 L1000.0,162.59989235717416" style="fill: blue"/>
<path d="M1000.0,560.4711882720186 L1000.0,560.4711882720186 L1000.0,538.2729071874289 L707.0404699196499,538.2729071874289 L707.0404699196499,560.4711882720186" style="fill: white"/>
<path d="M700.2578494336457,496.6957101772226 L700.2578494336457,496.6957101772226 L700.2578494336457,538.2729071874289 L1000.0,538.2729071874289 L1000.0,496.6957101772226" style="fill: white"/>
<path d="M777.5476817841408,687.9908571194145 L777.5476817841408,687.9908571194145 L777.5476817841408,720.0 L1000.0,720.0 L1000.0,687.9908571194145" style="fill: white"/>
<line x1="1000.0" y1="538.2729071874289" x2="0.0" y2="538.2729071874289"/>
<line x1="1000.0" y1="496.6957101772226" x2="0.0" y2="496.6957101772226"/>
<line x1="475.8154018530391" y1="720.0" x2="475.8154018530391" y2="496.6957101772226"/>
<line x1="31.700248147880416" y1="720.0" x2="31.700248147880416" y2="538.2729071874289"/>
<line x1="0.0" y1="367.11434587404887" x2="1000.0" y2="367.11434587404887"/>
<line x1="557.100817758166" y1="367.11434587404887" x2="557.100817758166" y2="0.0"/>
<line x1="700.2578494336457" y1="538.2729071874289" x2="700.2578494336457" y2="367.11434587404887"/>
<line x1="1000.0" y1="687.9908571194145" x2="475.8154018530391" y2="687.9908571194145"/>
<line x1="700.2578494336457" y1="396.0709939805542" x2="0.0" y2="396.0709939805542"/>
<line x1="475.8154018530391" y1="560.4711882720186" x2="1000.0" y2="560.4711882720186"/>
<line x1="475.8154018530391" y1="701.0020190152596" x2="31.700248147880416" y2="701.0020190152596"/>
<line x1="31.700248147880416" y1="610.3366587671746" x2="475.8154018530391" y2="610.3366587671746"/>
<line x1="31.700248147880416" y1="624.2646921026201" x2="1000.0" y2="624.2646921026201"/>
<line x1="777.5476817841408" y1="720.0" x2="777.5476817841408" y2="687.9908571194145"/>
<line x1="707.0404699196499" y1="560.4711882720186" x2="707.0404699196499" y2="538.2729071874289"/>
<line x1="210.3206053075452" y1="396.0709939805542" x2="210.3206053075452" y2="538.2729071874289"/>
<line x1="557.100817758166" y1="141.48547730648463" x2="0.0" y2="141.48547730648463"/>
<line x1="252.1082778884034" y1="141.48547730648463" x2="252.1082778884034" y2="396.0709939805542"/>
<line x1="557.100817758166" y1="15.863501588916527" x2="0.0" y2="15.863501588916527"/>
<line x1="210.3206053075452" y1="460.33665885289156" x2="0.0" y2="460.33665885289156"/>
<line x1="31.700248147880416" y1="676.1099363219314" x2="475.8154018530391" y2="676.1099363219314"/>
<line x1="210.3206053075452" y1="407.8562288739186" x2="1000.0" y2="407.8562288739186"/>
<line x1="557.100817758166" y1="162.59989235717416" x2="1000.0" y2="162.59989235717416"/>
<line x1="0.0" y1="28.52849755299113" x2="557.100817758166" y2="28.52849755299113"/>
<line x1="557.100817758166" y1="254.68297886701305" x2="0.0" y2="254.68297886701305"/>
<line x1="252.1082778884034" y1="283.8924019842435" x2="0.0" y2="283.8924019842435"/>
<line x1="700.2578494336457" y1="433.04717650250984" x2="210.3206053075452" y2="433.04717650250984"/>
<line x1="475.8154018530391" y1="578.5053861019401" x2="1000.0" y2="578.5053861019401"/>
<line x1="252.1082778884034" y1="280.0483161873657" x2="557.100817758166" y2="280.0483161873657"/>
<line x1="162.0870882090338" y1="28.52849755299113" x2="162.0870882090338" y2="254.68297886701305"/>
<line x1="557.100817758166" y1="54.00168707082241" x2="162.0870882090338" y2="54.00168707082241"/>
<line x1="590.5104117873257" y1="433.04717650250984" x2="590.5104117873257" y2="496.6957101772226"/>
</svg>
