<?xml version="1.0" encoding="utf-8"?>
<svg xmlns="http://www.w3.org/2000/svg"
    xmlns:xlink="http://www.w3.org/1999/xlink" width="1000" height="1000" >
<defs>

<style type="text/css"><![CDATA[

line {
    stroke: #000;
    stroke-width: 5px;
    fill: none;
}


]]></style>
</defs>
<path d="M60.22102390845796,757.1557533453812 L60.22102390845796,757.1557533453812 L0.0,757.1557533453812 L0.0,1000.0 L60.22102390845796,1000.0" style="fill: white"/>
<path d="M155.80551275335375,453.277363258057 L155.80551275335375,453.277363258057 L155.80551275335375,184.74845370096105 L0.0,184.74845370096105 L0.0,453.277363258057" style="fill: white"/>
<path d="M453.2204263582049,418.26092939023096 L453.2204263582049,418.26092939023096 L155.80551275335375,418.26092939023096 L155.80551275335375,453.277363258057 L453.2204263582049,453.277363258057" style="fill: white"/>
<path d="M60.22102390845796,660.2257384202854 L60.22102390845796,660.2257384202854 L0.0,660.2257384202856 L0.0,757.1557533453812 L60.22102390845796,757.1557533453812" style="fill: blue"/>
<path d="M453.2204263582049,226.01608151272006 L453.2204263582049,226.01608151272006 L238.607039084661,226.01608151272006 L238.607039084661,291.2843879572685 L453.2204263582049,291.2843879572685" style="fill: white"/>
<path d="M804.9420070196591,660.2257384202856 L804.9420070196591,660.2257384202856 L804.9420070196591,453.277363258057 L592.1677848731046,453.277363258057 L592.1677848731046,660.2257384202856" style="fill: white"/>
<path d="M1000.0,0.0 L1000.0,0.0 L453.2204263582049,0.0 L453.2204263582049,80.76271956431025 L1000.0,80.76271956431025" style="fill: white"/>
<path d="M1000.0,80.76271956431025 L1000.0,80.76271956431025 L453.2204263582049,80.76271956431025 L453.2204263582049,100.70305141471248 L1000.0,100.70305141471248" style="fill: blue"/>
<path d="M1000.0,100.70305141471248 L1000.0,100.70305141471248 L804.9420070196591,100.70305141471248 L804.9420070196591,184.74845370096105 L1000.0,184.74845370096105" style="fill: blue"/>
<path d="M155.80551275335375,826.0442917302705 L155.80551275335375,826.0442917302705 L60.22102390845796,826.0442917302705 L60.22102390845796,1000.0 L155.80551275335375,1000.0" style="fill: white"/>
<path d="M1000.0,660.2257384202856 L1000.0,660.2257384202856 L1000.0,453.277363258057 L804.9420070196591,453.277363258057 L804.9420070196591,660.2257384202856" style="fill: white"/>
<path d="M453.2204263582049,0.0 L453.2204263582049,0.0 L0.0,0.0 L0.0,38.19696285396468 L453.2204263582049,38.19696285396468" style="fill: blue"/>
<path d="M60.22102390845796,660.2257384202854 L60.22102390845796,660.2257384202854 L60.22102390845796,453.277363258057 L0.0,453.277363258057 L0.0,660.2257384202856" style="fill: white"/>
<path d="M804.9420070196591,184.74845370096105 L804.9420070196591,184.74845370096105 L453.2204263582049,184.74845370096105 L453.2204263582049,291.2843879572685 L804.9420070196592,291.2843879572685" style="fill: white"/>
<path d="M804.9420070196591,184.74845370096105 L804.9420070196591,184.74845370096105 L804.9420070196592,291.2843879572685 L1000.0,291.2843879572685 L1000.0,184.74845370096105" style="fill: white"/>
<path d="M238.607039084661,418.26092939023096 L238.607039084661,418.26092939023096 L238.607039084661,226.01608151272006 L155.80551275335375,226.01608151272006 L155.80551275335375,418.26092939023096" style="fill: red"/>
<path d="M592.1677848731046,660.2257384202854 L592.1677848731046,660.2257384202854 L155.80551275335375,660.2257384202856 L155.80551275335375,826.0442917302705 L592.1677848731046,826.0442917302705" style="fill: white"/>
<path d="M155.80551275335375,660.2257384202856 L155.80551275335375,660.2257384202856 L155.80551275335375,453.277363258057 L60.22102390845796,453.277363258057 L60.22102390845796,660.2257384202854" style="fill: blue"/>
<path d="M592.1677848731046,660.2257384202856 L592.1677848731046,660.2257384202856 L592.1677848731046,453.277363258057 L155.80551275335375,453.277363258057 L155.80551275335375,660.2257384202856" style="fill: white"/>
<path d="M155.80551275335375,184.74845370096105 L155.80551275335375,184.74845370096105 L453.2204263582049,184.74845370096105 L453.2204263582049,100.70305141471248 L155.80551275335375,100.70305141471248" style="fill: red"/>
<path d="M155.80551275335375,100.70305141471248 L155.80551275335375,100.70305141471248 L0.0,100.70305141471248 L0.0,184.74845370096105 L155.80551275335375,184.74845370096105" style="fill: white"/>
<path d="M155.80551275335375,660.2257384202856 L155.80551275335375,660.2257384202856 L60.22102390845796,660.2257384202854 L60.22102390845796,826.0442917302705 L155.80551275335375,826.0442917302705" style="fill: blue"/>
<path d="M453.2204263582049,38.19696285396468 L453.2204263582049,38.19696285396468 L0.0,38.19696285396468 L0.0,100.70305141471248 L453.2204263582049,100.70305141471248" style="fill: white"/>
<path d="M804.9420070196591,453.277363258057 L804.9420070196591,453.277363258057 L1000.0,453.277363258057 L1000.0,291.2843879572685 L804.9420070196592,291.2843879572685" style="fill: red"/>
<path d="M453.2204263582049,291.2843879572685 L453.2204263582049,291.2843879572685 L238.607039084661,291.2843879572685 L238.607039084661,418.26092939023096 L453.2204263582049,418.26092939023096" style="fill: white"/>
<path d="M804.9420070196592,291.2843879572685 L804.9420070196592,291.2843879572685 L453.2204263582049,291.2843879572685 L453.2204263582049,453.277363258057 L804.9420070196591,453.277363258057" style="fill: white"/>
<path d="M1000.0,1000.0 L1000.0,1000.0 L1000.0,660.2257384202856 L592.1677848731046,660.2257384202854 L592.1677848731046,1000.0" style="fill: yellow"/>
<path d="M592.1677848731046,826.0442917302705 L592.1677848731046,826.0442917302705 L155.80551275335375,826.0442917302705 L155.80551275335375,1000.0 L592.1677848731046,1000.0" style="fill: white"/>
<path d="M155.80551275335375,226.01608151272006 L155.80551275335375,226.01608151272006 L453.2204263582049,226.01608151272006 L453.2204263582049,184.74845370096105 L155.80551275335375,184.74845370096105" style="fill: white"/>
<path d="M804.9420070196591,100.70305141471248 L804.9420070196591,100.70305141471248 L453.2204263582049,100.70305141471248 L453.2204263582049,184.74845370096105 L804.9420070196591,184.74845370096105" style="fill: white"/>
<line x1="0.0" y1="100.70305141471248" x2="1000.0" y2="100.70305141471248"/>
<line x1="1000.0" y1="453.277363258057" x2="0.0" y2="453.277363258057"/>
<line x1="453.2204263582049" y1="453.277363258057" x2="453.2204263582049" y2="0.0"/>
<line x1="155.80551275335375" y1="1000.0" x2="155.80551275335375" y2="100.70305141471248"/>
<line x1="0.0" y1="660.2257384202856" x2="1000.0" y2="660.2257384202856"/>
<line x1="60.22102390845796" y1="1000.0" x2="60.22102390845796" y2="453.277363258057"/>
<line x1="804.9420070196591" y1="660.2257384202856" x2="804.9420070196591" y2="100.70305141471248"/>
<line x1="453.2204263582049" y1="80.76271956431025" x2="1000.0" y2="80.76271956431025"/>
<line x1="155.80551275335375" y1="418.26092939023096" x2="453.2204263582049" y2="418.26092939023096"/>
<line x1="592.1677848731046" y1="1000.0" x2="592.1677848731046" y2="453.277363258057"/>
<line x1="453.2204263582049" y1="226.01608151272006" x2="155.80551275335375" y2="226.01608151272006"/>
<line x1="0.0" y1="38.19696285396468" x2="453.2204263582049" y2="38.19696285396468"/>
<line x1="238.607039084661" y1="418.26092939023096" x2="238.607039084661" y2="226.01608151272006"/>
<line x1="1000.0" y1="184.74845370096105" x2="0.0" y2="184.74845370096105"/>
<line x1="238.607039084661" y1="291.2843879572685" x2="1000.0" y2="291.2843879572685"/>
<line x1="0.0" y1="757.1557533453812" x2="60.22102390845796" y2="757.1557533453812"/>
<line x1="592.1677848731046" y1="826.0442917302705" x2="60.22102390845796" y2="826.0442917302705"/>
</svg>
