<?xml version="1.0" encoding="utf-8"?>
<svg xmlns="http://www.w3.org/2000/svg"
    xmlns:xlink="http://www.w3.org/1999/xlink" width="1000" height="720" >
<defs>

<style type="text/css"><![CDATA[

line {
    stroke: #000;
    stroke-width: 5px;
    fill: none;
}


]]></style>
</defs>
<path d="M0.0,58.8896258414789 L0.0,58.8896258414789 L308.08343774777336,58.8896258414789 L308.08343774777336,26.772027185641306 L0.0,26.772027185641306" style="fill: white"/>
<path d="M308.08343774777336,264.64709845643046 L308.08343774777336,264.64709845643046 L366.51201769789554,264.64709845643046 L366.51201769789554,167.44065874110498 L308.08343774777336,167.44065874110498" style="fill: white"/>
<path d="M847.2627549129029,357.89774758292674 L847.2627549129029,357.89774758292674 L847.2627549129029,238.29641052978775 L691.672268904996,238.29641052978775 L691.672268904996,357.89774758292674" style="fill: white"/>
<path d="M366.51201769789554,720.0 L366.51201769789554,720.0 L597.0807636791444,720.0 L597.0807636791444,676.3930848362754 L366.51201769789554,676.3930848362754" style="fill: white"/>
<path d="M190.67475721069948,58.8896258414789 L190.67475721069948,58.8896258414789 L190.67475721069948,167.44065874110498 L308.08343774777336,167.44065874110498 L308.08343774777336,58.8896258414789" style="fill: white"/>
<path d="M847.2627549129029,357.89774758292674 L847.2627549129029,357.89774758292674 L960.7604862209013,357.89774758292674 L960.7604862209013,113.39412731900232 L847.2627549129029,113.39412731900232" style="fill: white"/>
<path d="M308.08343774777336,264.64709845643046 L308.08343774777336,264.64709845643046 L190.67475721069948,264.64709845643046 L190.67475721069948,357.89774758292674 L308.0834377477735,357.89774758292674" style="fill: blue"/>
<path d="M366.51201769789566,357.89774758292674 L366.51201769789566,357.89774758292674 L366.5120176978956,463.8224118744562 L529.0833558108826,463.8224118744562 L529.0833558108826,357.89774758292674" style="fill: white"/>
<path d="M1000.0,58.8896258414789 L1000.0,58.8896258414789 L960.7604862209013,58.8896258414789 L960.7604862209013,357.89774758292674 L1000.0,357.89774758292674" style="fill: white"/>
<path d="M0.0,584.803572781451 L0.0,584.803572781451 L0.0,676.3930848362754 L88.16778832263176,676.3930848362754 L88.16778832263176,584.803572781451" style="fill: white"/>
<path d="M691.672268904996,676.3930848362754 L691.672268904996,676.3930848362754 L691.672268904996,463.8224118744562 L366.5120176978956,463.8224118744562 L366.51201769789554,676.3930848362754" style="fill: yellow"/>
<path d="M847.2627549129029,113.39412731900232 L847.2627549129029,113.39412731900232 L960.7604862209013,113.39412731900232 L960.7604862209013,58.8896258414789 L847.2627549129029,58.8896258414789" style="fill: white"/>
<path d="M847.2627549129029,58.8896258414789 L847.2627549129029,58.8896258414789 L691.672268904996,58.8896258414789 L691.672268904996,238.29641052978775 L847.2627549129029,238.29641052978775" style="fill: white"/>
<path d="M102.27628463270534,182.90515525592195 L102.27628463270534,182.90515525592195 L64.99364602847734,182.90515525592195 L64.99364602847734,346.9078352306633 L102.27628463270534,346.9078352306633" style="fill: red"/>
<path d="M20.232523090242164,584.803572781451 L20.232523090242164,584.803572781451 L20.232523090242164,182.90515525592195 L0.0,182.90515525592195 L0.0,584.803572781451" style="fill: blue"/>
<path d="M366.51201769789554,701.2015918297143 L366.51201769789554,701.2015918297143 L0.0,701.2015918297143 L0.0,720.0 L366.51201769789554,720.0" style="fill: white"/>
<path d="M190.67475721069948,533.3321143217868 L190.67475721069948,533.3321143217868 L308.08343774777336,533.3321143217868 L308.0834377477734,463.8224118744562 L190.67475721069948,463.8224118744562" style="fill: white"/>
<path d="M102.27628463270534,264.64709845643046 L102.27628463270534,264.64709845643046 L190.67475721069948,264.64709845643046 L190.67475721069948,182.90515525592195 L102.27628463270534,182.90515525592195" style="fill: white"/>
<path d="M190.67475721069948,182.90515525592195 L190.67475721069948,182.90515525592195 L190.67475721069948,111.76433008184016 L0.0,111.76433008184016 L0.0,182.90515525592195" style="fill: blue"/>
<path d="M739.5765604730527,58.8896258414789 L739.5765604730527,58.8896258414789 L739.5765604730527,22.671505485125873 L308.08343774777336,22.671505485125873 L308.08343774777336,58.8896258414789" style="fill: white"/>
<path d="M308.08343774777336,58.8896258414789 L308.08343774777336,58.8896258414789 L308.08343774777336,167.44065874110498 L366.51201769789554,167.44065874110498 L366.51201769789554,58.8896258414789" style="fill: blue"/>
<path d="M1000.0,676.3930848362754 L1000.0,676.3930848362754 L1000.0,357.89774758292674 L847.2627549129029,357.89774758292674 L847.2627549129029,676.3930848362754" style="fill: white"/>
<path d="M0.0,26.772027185641306 L0.0,26.772027185641306 L308.08343774777336,26.772027185641306 L308.08343774777336,0.0 L0.0,0.0" style="fill: red"/>
<path d="M64.99364602847734,346.9078352306633 L64.99364602847734,346.9078352306633 L20.232523090242164,346.9078352306633 L20.232523090242164,584.803572781451 L64.99364602847734,584.803572781451" style="fill: blue"/>
<path d="M308.08343774777336,357.89774758292674 L308.08343774777336,357.89774758292674 L308.08343774777336,463.8224118744562 L366.51201769789554,463.8224118744562 L366.51201769789554,357.89774758292674" style="fill: red"/>
<path d="M429.0145251328128,357.89774758292674 L429.0145251328128,357.89774758292674 L429.0145251328128,58.8896258414789 L366.51201769789554,58.8896258414789 L366.51201769789566,357.89774758292674" style="fill: red"/>
<path d="M190.67475721069948,584.803572781451 L190.67475721069948,584.803572781451 L190.67475721069948,463.8224118744562 L102.27628463270534,463.8224118744562 L102.27628463270534,584.803572781451" style="fill: white"/>
<path d="M1000.0,676.3930848362754 L1000.0,676.3930848362754 L847.2627549129029,676.3930848362754 L847.2627549129029,720.0 L1000.0,720.0" style="fill: white"/>
<path d="M847.2627549129029,720.0 L847.2627549129029,720.0 L847.2627549129029,676.3930848362754 L597.0807636791444,676.3930848362754 L597.0807636791444,720.0" style="fill: white"/>
<path d="M739.5765604730527,0.0 L739.5765604730527,0.0 L308.08343774777336,0.0 L308.08343774777336,22.671505485125873 L739.5765604730527,22.671505485125873" style="fill: white"/>
<path d="M308.08343774777336,676.3930848362754 L308.08343774777336,676.3930848362754 L308.08343774777336,533.3321143217868 L265.8026048430403,533.3321143217868 L265.8026048430403,676.3930848362754" style="fill: red"/>
<path d="M102.27628463270534,346.9078352306633 L102.27628463270534,346.9078352306633 L64.99364602847734,346.9078352306633 L64.99364602847734,584.803572781451 L102.27628463270534,584.803572781451" style="fill: white"/>
<path d="M162.80750115514508,264.64709845643046 L162.80750115514508,264.64709845643046 L162.80750115514508,463.8224118744562 L190.67475721069948,463.8224118744562 L190.67475721069948,264.64709845643046" style="fill: yellow"/>
<path d="M308.08343774777336,676.3930848362754 L308.08343774777336,676.3930848362754 L366.51201769789554,676.3930848362754 L366.51201769789554,463.8224118744562 L308.08343774777336,463.8224118744562" style="fill: white"/>
<path d="M529.0833558108826,357.89774758292674 L529.0833558108826,357.89774758292674 L529.0833558108826,463.8224118744562 L691.672268904996,463.8224118744562 L691.672268904996,357.89774758292674" style="fill: white"/>
<path d="M64.99364602847734,182.90515525592195 L64.99364602847734,182.90515525592195 L20.232523090242164,182.90515525592195 L20.232523090242164,346.9078352306633 L64.99364602847734,346.9078352306633" style="fill: blue"/>
<path d="M190.67475721069948,58.8896258414789 L190.67475721069948,58.8896258414789 L0.0,58.8896258414789 L0.0,111.76433008184016 L190.67475721069948,111.76433008184016" style="fill: white"/>
<path d="M1000.0,58.8896258414789 L1000.0,58.8896258414789 L1000.0,0.0 L739.5765604730527,0.0 L739.5765604730527,58.8896258414789" style="fill: yellow"/>
<path d="M190.67475721069948,357.89774758292674 L190.67475721069948,357.89774758292674 L190.67475721069948,463.8224118744562 L308.0834377477734,463.8224118744562 L308.0834377477735,357.89774758292674" style="fill: white"/>
<path d="M102.27628463270534,264.64709845643046 L102.27628463270534,264.64709845643046 L102.27628463270534,463.8224118744562 L162.80750115514508,463.8224118744562 L162.80750115514508,264.64709845643046" style="fill: red"/>
<path d="M691.672268904996,58.8896258414789 L691.672268904996,58.8896258414789 L429.0145251328128,58.8896258414789 L429.0145251328128,238.29641052978775 L691.672268904996,238.29641052978775" style="fill: white"/>
<path d="M190.67475721069948,584.803572781451 L190.67475721069948,584.803572781451 L88.16778832263176,584.803572781451 L88.16778832263176,676.3930848362754 L190.67475721069948,676.3930848362754" style="fill: white"/>
<path d="M366.51201769789554,264.6470984564304 L366.51201769789554,264.6470984564304 L308.08343774777336,264.64709845643046 L308.08343774777336,357.89774758292674 L366.51201769789554,357.89774758292674" style="fill: yellow"/>
<path d="M691.672268904996,238.29641052978775 L691.672268904996,238.29641052978775 L429.0145251328128,238.29641052978775 L429.0145251328128,357.89774758292674 L691.672268904996,357.89774758292674" style="fill: red"/>
<path d="M847.2627549129029,676.3930848362754 L847.2627549129029,676.3930848362754 L847.2627549129029,357.89774758292674 L691.672268904996,357.89774758292674 L691.672268904996,676.3930848362754" style="fill: blue"/>
<path d="M366.51201769789554,676.3930848362754 L366.51201769789554,676.3930848362754 L0.0,676.3930848362754 L0.0,701.2015918297143 L366.51201769789554,701.2015918297143" style="fill: white"/>
<path d="M265.8026048430403,676.3930848362754 L265.8026048430403,676.3930848362754 L265.8026048430403,533.3321143217868 L190.67475721069948,533.3321143217868 L190.67475721069948,676.3930848362754" style="fill: white"/>
<path d="M190.67475721069948,264.64709845643046 L190.67475721069948,264.64709845643046 L308.08343774777336,264.64709845643046 L308.08343774777336,167.44065874110498 L190.67475721069948,167.44065874110498" style="fill: white"/>
<line x1="1000.0" y1="676.3930848362754" x2="0.0" y2="676.3930848362754"/>
<line x1="1000.0" y1="58.8896258414789" x2="0.0" y2="58.8896258414789"/>
<line x1="190.67475721069948" y1="58.8896258414789" x2="190.67475721069948" y2="676.3930848362754"/>
<line x1="0.0" y1="182.90515525592195" x2="190.67475721069948" y2="182.90515525592195"/>
<line x1="308.08343774777336" y1="0.0" x2="308.08343774777336" y2="676.3930848362754"/>
<line x1="190.67475721069948" y1="584.803572781451" x2="0.0" y2="584.803572781451"/>
<line x1="308.08343774777336" y1="26.772027185641306" x2="0.0" y2="26.772027185641306"/>
<line x1="102.27628463270534" y1="584.803572781451" x2="102.27628463270534" y2="182.90515525592195"/>
<line x1="64.99364602847734" y1="182.90515525592195" x2="64.99364602847734" y2="584.803572781451"/>
<line x1="366.51201769789554" y1="720.0" x2="366.51201769789554" y2="58.8896258414789"/>
<line x1="308.08343774777336" y1="533.3321143217868" x2="190.67475721069948" y2="533.3321143217868"/>
<line x1="691.672268904996" y1="676.3930848362754" x2="691.672268904996" y2="58.8896258414789"/>
<line x1="102.27628463270534" y1="264.64709845643046" x2="366.51201769789554" y2="264.64709845643046"/>
<line x1="0.0" y1="111.76433008184016" x2="190.67475721069948" y2="111.76433008184016"/>
<line x1="20.232523090242164" y1="182.90515525592195" x2="20.232523090242164" y2="584.803572781451"/>
<line x1="0.0" y1="701.2015918297143" x2="366.51201769789554" y2="701.2015918297143"/>
<line x1="20.232523090242164" y1="346.9078352306633" x2="102.27628463270534" y2="346.9078352306633"/>
<line x1="1000.0" y1="357.89774758292674" x2="190.67475721069948" y2="357.89774758292674"/>
<line x1="265.8026048430403" y1="533.3321143217868" x2="265.8026048430403" y2="676.3930848362754"/>
<line x1="102.27628463270534" y1="463.8224118744562" x2="691.672268904996" y2="463.8224118744562"/>
<line x1="529.0833558108826" y1="463.8224118744562" x2="529.0833558108826" y2="357.89774758292674"/>
<line x1="847.2627549129029" y1="720.0" x2="847.2627549129029" y2="58.8896258414789"/>
<line x1="960.7604862209013" y1="357.89774758292674" x2="960.7604862209013" y2="58.8896258414789"/>
<line x1="162.80750115514508" y1="264.64709845643046" x2="162.80750115514508" y2="463.8224118744562"/>
<line x1="739.5765604730527" y1="0.0" x2="739.5765604730527" y2="58.8896258414789"/>
<line x1="429.0145251328128" y1="58.8896258414789" x2="429.0145251328128" y2="357.89774758292674"/>
<line x1="597.0807636791444" y1="676.3930848362754" x2="597.0807636791444" y2="720.0"/>
<line x1="739.5765604730527" y1="22.671505485125873" x2="308.08343774777336" y2="22.671505485125873"/>
<line x1="847.2627549129029" y1="113.39412731900232" x2="960.7604862209013" y2="113.39412731900232"/>
<line x1="88.16778832263176" y1="584.803572781451" x2="88.16778832263176" y2="676.3930848362754"/>
<line x1="366.51201769789554" y1="167.44065874110498" x2="190.67475721069948" y2="167.44065874110498"/>
<line x1="429.0145251328128" y1="238.29641052978775" x2="847.2627549129029" y2="238.29641052978775"/>
</svg>
