<?xml version="1.0" encoding="utf-8"?>
<svg xmlns="http://www.w3.org/2000/svg"
    xmlns:xlink="http://www.w3.org/1999/xlink" width="792" height="612" >
<defs>

<style type="text/css"><![CDATA[

line {
    stroke: #000;
    stroke-width: 5px;
    fill: none;
}


]]></style>
</defs>
<path d="M609.2710513079345,612.0 L609.2710513079345,612.0 L792.0,612.0 L792.0,530.4020363236734 L609.2710513079345,530.4020363236734" style="fill: white"/>
<path d="M384.79945043486924,408.9084592233831 L384.79945043486924,408.9084592233831 L200.55016530050358,408.90845922338315 L200.55016530050358,467.2643552179715 L384.79945043486924,467.2643552179715" style="fill: white"/>
<path d="M609.2710513079345,467.2643552179715 L609.2710513079345,467.2643552179715 L609.2710513079345,408.9084592233831 L499.0289072273398,408.9084592233831 L499.0289072273398,467.2643552179715" style="fill: white"/>
<path d="M384.79945043486924,59.93522968810261 L384.79945043486924,59.93522968810261 L263.8322743275405,59.93522968810264 L263.8322743275405,338.1467364650221 L384.79945043486924,338.1467364650221" style="fill: blue"/>
<path d="M499.0289072273398,59.93522968810261 L499.0289072273398,59.93522968810261 L499.0289072273398,0.0 L384.79945043486924,0.0 L384.79945043486924,59.93522968810262" style="fill: yellow"/>
<path d="M335.5268728828838,530.4020363236734 L335.5268728828838,530.4020363236734 L499.0289072273398,530.4020363236734 L499.0289072273398,467.2643552179715 L335.5268728828838,467.2643552179715" style="fill: white"/>
<path d="M499.0289072273398,355.5530021293579 L499.0289072273398,355.5530021293579 L384.79945043486924,355.5530021293579 L384.79945043486924,408.9084592233831 L499.0289072273398,408.9084592233831" style="fill: blue"/>
<path d="M200.55016530050358,59.93522968810266 L200.55016530050358,59.93522968810266 L200.55016530050358,408.9084592233831 L225.21984793452174,408.9084592233831 L225.21984793452174,59.935229688102666" style="fill: yellow"/>
<path d="M0.0,408.9084592233831 L0.0,408.9084592233831 L0.0,467.2643552179715 L200.55016530050358,467.2643552179715 L200.55016530050358,408.90845922338315" style="fill: blue"/>
<path d="M335.5268728828838,612.0 L335.5268728828838,612.0 L499.0289072273398,612.0 L499.0289072273398,530.4020363236734 L335.5268728828838,530.4020363236734" style="fill: white"/>
<path d="M384.79945043486924,338.1467364650221 L384.79945043486924,338.1467364650221 L263.8322743275405,338.1467364650221 L263.8322743275405,408.9084592233831 L384.79945043486924,408.9084592233831" style="fill: white"/>
<path d="M499.0289072273398,612.0 L499.0289072273398,612.0 L609.2710513079345,612.0 L609.2710513079345,530.4020363236734 L499.0289072273398,530.4020363236734" style="fill: white"/>
<path d="M499.0289072273398,467.2643552179715 L499.0289072273398,467.2643552179715 L499.0289072273398,408.9084592233831 L384.79945043486924,408.9084592233831 L384.79945043486924,467.2643552179715" style="fill: red"/>
<path d="M499.0289072273398,59.93522968810261 L499.0289072273398,59.93522968810261 L384.79945043486924,59.93522968810262 L384.79945043486924,355.5530021293579 L499.0289072273398,355.5530021293579" style="fill: white"/>
<path d="M0.0,408.9084592233831 L0.0,408.9084592233831 L200.55016530050358,408.9084592233831 L200.55016530050358,100.83912838333087 L0.0,100.83912838333087" style="fill: yellow"/>
<path d="M200.55016530050358,59.93522968810265 L200.55016530050358,59.93522968810265 L200.55016530050358,0.0 L0.0,0.0 L0.0,59.93522968810267" style="fill: white"/>
<path d="M609.2710513079345,467.2643552179715 L609.2710513079345,467.2643552179715 L609.2710513079345,530.4020363236734 L792.0,530.4020363236734 L792.0,467.2643552179715" style="fill: blue"/>
<path d="M499.0289072273398,0.0 L499.0289072273398,0.0 L499.0289072273398,59.93522968810261 L609.2710513079345,59.93522968810267 L609.2710513079345,0.0" style="fill: white"/>
<path d="M225.21984793452174,59.935229688102666 L225.21984793452174,59.935229688102666 L225.21984793452174,408.9084592233831 L263.8322743275405,408.9084592233831 L263.8322743275405,59.93522968810267" style="fill: white"/>
<path d="M609.2710513079345,408.9084592233831 L609.2710513079345,408.9084592233831 L609.2710513079345,467.2643552179715 L792.0,467.2643552179715 L792.0,408.9084592233831" style="fill: blue"/>
<path d="M499.0289072273398,59.93522968810261 L499.0289072273398,59.93522968810261 L499.0289072273398,408.9084592233831 L609.2710513079345,408.9084592233831 L609.2710513079345,59.93522968810267" style="fill: white"/>
<path d="M200.55016530050358,612.0 L200.55016530050358,612.0 L200.55016530050358,467.2643552179715 L0.0,467.2643552179715 L0.0,612.0" style="fill: yellow"/>
<path d="M609.2710513079345,310.04474036766254 L609.2710513079345,310.04474036766254 L705.5067847972115,310.04474036766254 L705.5067847972115,56.53264519028063 L609.2710513079345,56.53264519028063" style="fill: yellow"/>
<path d="M792.0,0.0 L792.0,0.0 L609.2710513079345,0.0 L609.2710513079345,56.53264519028063 L792.0,56.53264519028063" style="fill: white"/>
<path d="M0.0,100.83912838333087 L0.0,100.83912838333087 L200.55016530050358,100.83912838333087 L200.55016530050358,59.93522968810267 L0.0,59.93522968810267" style="fill: yellow"/>
<path d="M499.0289072273398,467.2643552179715 L499.0289072273398,467.2643552179715 L499.0289072273398,530.4020363236734 L609.2710513079345,530.4020363236734 L609.2710513079345,467.2643552179715" style="fill: yellow"/>
<path d="M705.5067847972115,56.53264519028063 L705.5067847972115,56.53264519028063 L705.5067847972115,408.9084592233831 L792.0,408.9084592233831 L792.0,56.53264519028063" style="fill: white"/>
<path d="M609.2710513079345,408.9084592233831 L609.2710513079345,408.9084592233831 L705.5067847972115,408.9084592233831 L705.5067847972115,310.04474036766254 L609.2710513079345,310.04474036766254" style="fill: yellow"/>
<path d="M335.5268728828838,612.0 L335.5268728828838,612.0 L335.5268728828838,467.2643552179715 L200.55016530050358,467.2643552179715 L200.55016530050358,612.0" style="fill: white"/>
<path d="M384.79945043486924,59.93522968810262 L384.79945043486924,59.93522968810262 L384.79945043486924,0.0 L200.55016530050358,0.0 L200.55016530050358,59.93522968810265" style="fill: yellow"/>
<line x1="0.0" y1="408.9084592233831" x2="792.0" y2="408.9084592233831"/>
<line x1="0.0" y1="467.2643552179715" x2="792.0" y2="467.2643552179715"/>
<line x1="609.2710513079345" y1="0.0" x2="609.2710513079345" y2="612.0"/>
<line x1="335.5268728828838" y1="612.0" x2="335.5268728828838" y2="467.2643552179715"/>
<line x1="0.0" y1="59.93522968810267" x2="609.2710513079345" y2="59.93522968810267"/>
<line x1="609.2710513079345" y1="56.53264519028063" x2="792.0" y2="56.53264519028063"/>
<line x1="499.0289072273398" y1="612.0" x2="499.0289072273398" y2="0.0"/>
<line x1="384.79945043486924" y1="0.0" x2="384.79945043486924" y2="467.2643552179715"/>
<line x1="263.8322743275405" y1="59.93522968810267" x2="263.8322743275405" y2="408.9084592233831"/>
<line x1="335.5268728828838" y1="530.4020363236734" x2="792.0" y2="530.4020363236734"/>
<line x1="499.0289072273398" y1="355.5530021293579" x2="384.79945043486924" y2="355.5530021293579"/>
<line x1="263.8322743275405" y1="338.1467364650221" x2="384.79945043486924" y2="338.1467364650221"/>
<line x1="705.5067847972115" y1="56.53264519028063" x2="705.5067847972115" y2="408.9084592233831"/>
<line x1="200.55016530050358" y1="0.0" x2="200.55016530050358" y2="612.0"/>
<line x1="225.21984793452174" y1="59.93522968810267" x2="225.21984793452174" y2="408.9084592233831"/>
<line x1="705.5067847972115" y1="310.04474036766254" x2="609.2710513079345" y2="310.04474036766254"/>
<line x1="0.0" y1="100.83912838333087" x2="200.55016530050358" y2="100.83912838333087"/>
</svg>
