<?xml version="1.0" encoding="utf-8"?>
<svg xmlns="http://www.w3.org/2000/svg"
    xmlns:xlink="http://www.w3.org/1999/xlink" width="792" height="612" >
<defs>

<style type="text/css"><![CDATA[

line {
    stroke: #000;
    stroke-width: 5px;
    fill: none;
}


]]></style>
</defs>
<path d="M530.9155530026277,248.93013879342584 L530.9155530026277,248.93013879342584 L792.0,248.93013879342584 L792.0,216.8533518133433 L530.9155530026277,216.8533518133433" style="fill: red"/>
<path d="M55.13138251302343,612.0 L55.13138251302343,612.0 L55.13138251302343,362.8841951343229 L0.0,362.8841951343229 L0.0,612.0" style="fill: yellow"/>
<path d="M530.9155530026277,46.82774370285055 L530.9155530026277,46.82774370285055 L530.9155530026277,0.0 L347.26234767396824,0.0 L347.26234767396824,46.82774370285056" style="fill: white"/>
<path d="M595.4863930294431,248.93013879342584 L595.4863930294431,248.93013879342584 L595.4863930294431,612.0 L792.0,612.0 L792.0,248.93013879342584" style="fill: white"/>
<path d="M210.6212690776154,362.8841951343229 L210.6212690776154,362.8841951343229 L210.6212690776154,248.93013879342584 L140.9105876260139,248.93013879342584 L140.9105876260139,362.8841951343229" style="fill: white"/>
<path d="M347.26234767396824,248.93013879342584 L347.26234767396824,248.93013879342584 L347.26234767396824,46.82774370285056 L210.6212690776154,46.82774370285055 L210.6212690776154,248.93013879342584" style="fill: white"/>
<path d="M347.26234767396824,46.82774370285056 L347.26234767396824,46.82774370285056 L347.26234767396824,174.03439741705142 L530.9155530026277,174.03439741705142 L530.9155530026277,46.82774370285055" style="fill: white"/>
<path d="M274.3383165251405,409.0970260128992 L274.3383165251405,409.0970260128992 L210.6212690776154,409.0970260128992 L210.6212690776154,527.9281204490127 L274.3383165251405,527.9281204490127" style="fill: white"/>
<path d="M210.6212690776154,362.8841951343229 L210.6212690776154,362.8841951343229 L55.13138251302343,362.8841951343229 L55.13138251302343,409.0970260128992 L210.6212690776154,409.0970260128992" style="fill: blue"/>
<path d="M0.0,248.93013879342584 L0.0,248.93013879342584 L140.9105876260139,248.93013879342584 L140.9105876260139,123.20247458729662 L0.0,123.20247458729662" style="fill: white"/>
<path d="M140.9105876260139,0.0 L140.9105876260139,0.0 L140.9105876260139,248.93013879342584 L210.6212690776154,248.93013879342584 L210.6212690776154,0.0" style="fill: white"/>
<path d="M210.6212690776154,46.82774370285055 L210.6212690776154,46.82774370285055 L347.26234767396824,46.82774370285056 L347.26234767396824,0.0 L210.6212690776154,0.0" style="fill: white"/>
<path d="M530.9155530026277,216.8533518133433 L530.9155530026277,216.8533518133433 L347.26234767396824,216.8533518133433 L347.26234767396824,248.93013879342584 L530.9155530026277,248.93013879342584" style="fill: red"/>
<path d="M0.0,123.20247458729662 L0.0,123.20247458729662 L140.9105876260139,123.20247458729662 L140.9105876260139,0.0 L0.0,0.0" style="fill: white"/>
<path d="M530.9155530026277,612.0 L530.9155530026277,612.0 L530.9155530026277,409.0970260128992 L494.1827761921821,409.0970260128992 L494.1827761921821,612.0" style="fill: red"/>
<path d="M530.9155530026277,216.8533518133433 L530.9155530026277,216.8533518133433 L792.0,216.8533518133433 L792.0,174.03439741705142 L530.9155530026277,174.03439741705142" style="fill: blue"/>
<path d="M530.9155530026277,174.03439741705142 L530.9155530026277,174.03439741705142 L792.0,174.03439741705142 L792.0,0.0 L530.9155530026277,0.0" style="fill: red"/>
<path d="M210.6212690776154,409.0970260128992 L210.6212690776154,409.0970260128992 L274.3383165251405,409.0970260128992 L274.3383165251405,248.93013879342584 L210.6212690776154,248.93013879342584" style="fill: red"/>
<path d="M0.0,362.8841951343229 L0.0,362.8841951343229 L140.9105876260139,362.8841951343229 L140.9105876260139,248.93013879342584 L0.0,248.93013879342584" style="fill: red"/>
<path d="M274.3383165251405,612.0 L274.3383165251405,612.0 L274.3383165251405,527.9281204490127 L210.6212690776154,527.9281204490127 L210.6212690776154,612.0" style="fill: red"/>
<path d="M347.26234767396824,216.8533518133433 L347.26234767396824,216.8533518133433 L530.9155530026277,216.8533518133433 L530.9155530026277,174.03439741705142 L347.26234767396824,174.03439741705142" style="fill: white"/>
<path d="M274.3383165251405,409.0970260128992 L274.3383165251405,409.0970260128992 L274.3383165251405,612.0 L338.9705842585804,612.0 L338.9705842585804,409.0970260128992" style="fill: white"/>
<path d="M55.13138251302343,409.0970260128992 L55.13138251302343,409.0970260128992 L55.13138251302343,527.9281204490127 L210.6212690776154,527.9281204490127 L210.6212690776154,409.0970260128992" style="fill: yellow"/>
<path d="M494.1827761921821,409.0970260128992 L494.1827761921821,409.0970260128992 L338.9705842585804,409.0970260128992 L338.9705842585804,612.0 L494.1827761921821,612.0" style="fill: white"/>
<path d="M530.9155530026277,409.0970260128992 L530.9155530026277,409.0970260128992 L530.9155530026277,248.93013879342584 L494.1827761921821,248.93013879342584 L494.1827761921821,409.0970260128992" style="fill: red"/>
<path d="M494.1827761921821,409.0970260128992 L494.1827761921821,409.0970260128992 L494.1827761921821,248.93013879342584 L274.3383165251405,248.93013879342584 L274.3383165251405,409.0970260128992" style="fill: yellow"/>
<path d="M530.9155530026277,248.93013879342584 L530.9155530026277,248.93013879342584 L530.9155530026277,612.0 L595.4863930294431,612.0 L595.4863930294431,248.93013879342584" style="fill: yellow"/>
<path d="M55.13138251302343,612.0 L55.13138251302343,612.0 L210.6212690776154,612.0 L210.6212690776154,527.9281204490127 L55.13138251302343,527.9281204490127" style="fill: white"/>
<line x1="530.9155530026277" y1="612.0" x2="530.9155530026277" y2="0.0"/>
<line x1="210.6212690776154" y1="0.0" x2="210.6212690776154" y2="612.0"/>
<line x1="0.0" y1="248.93013879342584" x2="792.0" y2="248.93013879342584"/>
<line x1="274.3383165251405" y1="248.93013879342584" x2="274.3383165251405" y2="612.0"/>
<line x1="530.9155530026277" y1="46.82774370285055" x2="210.6212690776154" y2="46.82774370285055"/>
<line x1="210.6212690776154" y1="362.8841951343229" x2="0.0" y2="362.8841951343229"/>
<line x1="347.26234767396824" y1="0.0" x2="347.26234767396824" y2="248.93013879342584"/>
<line x1="55.13138251302343" y1="362.8841951343229" x2="55.13138251302343" y2="612.0"/>
<line x1="347.26234767396824" y1="216.8533518133433" x2="792.0" y2="216.8533518133433"/>
<line x1="55.13138251302343" y1="409.0970260128992" x2="530.9155530026277" y2="409.0970260128992"/>
<line x1="140.9105876260139" y1="362.8841951343229" x2="140.9105876260139" y2="0.0"/>
<line x1="595.4863930294431" y1="612.0" x2="595.4863930294431" y2="248.93013879342584"/>
<line x1="55.13138251302343" y1="527.9281204490127" x2="274.3383165251405" y2="527.9281204490127"/>
<line x1="494.1827761921821" y1="612.0" x2="494.1827761921821" y2="248.93013879342584"/>
<line x1="792.0" y1="174.03439741705142" x2="347.26234767396824" y2="174.03439741705142"/>
<line x1="338.9705842585804" y1="612.0" x2="338.9705842585804" y2="409.0970260128992"/>
<line x1="0.0" y1="123.20247458729662" x2="140.9105876260139" y2="123.20247458729662"/>
</svg>
