<?xml version="1.0" encoding="utf-8"?>
<svg xmlns="http://www.w3.org/2000/svg"
 xmlns:xlink="http://www.w3.org/1999/xlink" width="800" height="600" >
<defs>
    <style type="text/css"><![CDATA[
        line {
        stroke: #000;
        stroke-width: 5px;
        }
    ]]></style></defs>
<rect x="0" y="0" width="90.75078571811605" height="160.73832107261558" style="fill: white"/>
<rect x="90.75078571811605" y="0" width="69.89701415396442" height="160.73832107261558" style="fill: white"/>
<rect x="160.64779987208047" y="0" width="190.3734008799361" height="71.70310544753748" style="fill: white"/>
<rect x="351.02120075201657" y="0" width="107.57679741791941" height="71.70310544753748" style="fill: yellow"/>
<rect x="458.597998169936" y="0" width="104.87534927028571" height="71.70310544753748" style="fill: yellow"/>
<rect x="563.4733474402217" y="0" width="76.95809038536629" height="71.70310544753748" style="fill: yellow"/>
<rect x="640.431437825588" y="0" width="46.2108866326173" height="71.70310544753748" style="fill: blue"/>
<rect x="686.6423244582053" y="0" width="32.61591787624786" height="71.70310544753748" style="fill: red"/>
<rect x="719.2582423344531" y="0" width="80.74175766554686" height="94.41099812607952" style="fill: white"/>
<rect x="160.64779987208047" y="71.70310544753748" width="190.3734008799361" height="89.0352156250781" style="fill: white"/>
<rect x="351.02120075201657" y="71.70310544753748" width="107.57679741791941" height="89.0352156250781" style="fill: yellow"/>
<rect x="458.597998169936" y="71.70310544753748" width="104.87534927028571" height="22.707892678542038" style="fill: white"/>
<rect x="563.4733474402217" y="71.70310544753748" width="76.95809038536629" height="22.707892678542038" style="fill: red"/>
<rect x="640.431437825588" y="71.70310544753748" width="46.2108866326173" height="22.707892678542038" style="fill: red"/>
<rect x="686.6423244582053" y="71.70310544753748" width="32.61591787624786" height="22.707892678542038" style="fill: red"/>
<rect x="458.597998169936" y="94.41099812607952" width="104.87534927028571" height="66.32732294653606" style="fill: yellow"/>
<rect x="563.4733474402217" y="94.41099812607952" width="76.95809038536629" height="17.905438781738127" style="fill: blue"/>
<rect x="640.431437825588" y="94.41099812607952" width="46.2108866326173" height="34.23314596765941" style="fill: yellow"/>
<rect x="686.6423244582053" y="94.41099812607952" width="32.61591787624786" height="34.23314596765941" style="fill: white"/>
<rect x="719.2582423344531" y="94.41099812607952" width="80.74175766554686" height="34.23314596765941" style="fill: white"/>
<rect x="563.4733474402217" y="112.31643690781765" width="76.95809038536629" height="16.327707185921284" style="fill: white"/>
<rect x="563.4733474402217" y="128.64414409373893" width="155.78489489423146" height="32.094176978876646" style="fill: yellow"/>
<rect x="719.2582423344531" y="128.64414409373893" width="80.74175766554686" height="32.094176978876646" style="fill: red"/>
<rect x="0" y="160.73832107261558" width="90.75078571811605" height="37.28432593885276" style="fill: blue"/>
<rect x="90.75078571811605" y="160.73832107261558" width="69.89701415396442" height="37.28432593885276" style="fill: white"/>
<rect x="160.64779987208047" y="160.73832107261558" width="252.563432072594" height="155.19690013754348" style="fill: white"/>
<rect x="413.21123194467447" y="160.73832107261558" width="45.38676622526151" height="135.82034654485744" style="fill: white"/>
<rect x="458.597998169936" y="160.73832107261558" width="104.87534927028571" height="135.82034654485744" style="fill: red"/>
<rect x="563.4733474402217" y="160.73832107261558" width="155.78489489423146" height="135.82034654485744" style="fill: white"/>
<rect x="719.2582423344531" y="160.73832107261558" width="39.70454592289252" height="135.82034654485744" style="fill: red"/>
<rect x="758.9627882573457" y="160.73832107261558" width="41.037211742654335" height="135.82034654485744" style="fill: white"/>
<rect x="0" y="198.02264701146834" width="90.75078571811605" height="117.91257419869072" style="fill: white"/>
<rect x="90.75078571811605" y="198.02264701146834" width="69.89701415396442" height="117.91257419869072" style="fill: white"/>
<rect x="413.21123194467447" y="296.558667617473" width="45.38676622526151" height="74.54984727167533" style="fill: yellow"/>
<rect x="458.597998169936" y="296.558667617473" width="104.87534927028571" height="74.54984727167533" style="fill: white"/>
<rect x="563.4733474402217" y="296.558667617473" width="155.78489489423146" height="124.86456757705736" style="fill: white"/>
<rect x="719.2582423344531" y="296.558667617473" width="39.70454592289252" height="124.86456757705736" style="fill: red"/>
<rect x="758.9627882573457" y="296.558667617473" width="41.037211742654335" height="124.86456757705736" style="fill: white"/>
<rect x="0" y="315.93522121015906" width="90.75078571811605" height="151.26607026459294" style="fill: red"/>
<rect x="90.75078571811605" y="315.93522121015906" width="322.4604462265584" height="55.173293678989296" style="fill: white"/>
<rect x="90.75078571811605" y="371.10851488914835" width="322.4604462265584" height="96.09277658560364" style="fill: white"/>
<rect x="413.21123194467447" y="371.10851488914835" width="45.38676622526151" height="50.314720305382025" style="fill: white"/>
<rect x="458.597998169936" y="371.10851488914835" width="104.87534927028571" height="50.314720305382025" style="fill: yellow"/>
<rect x="413.21123194467447" y="421.4232351945304" width="45.38676622526151" height="45.77805628022162" style="fill: white"/>
<rect x="458.597998169936" y="421.4232351945304" width="104.87534927028571" height="45.77805628022162" style="fill: blue"/>
<rect x="563.4733474402217" y="421.4232351945304" width="155.78489489423146" height="80.6917927607231" style="fill: white"/>
<rect x="719.2582423344531" y="421.4232351945304" width="39.70454592289252" height="80.6917927607231" style="fill: blue"/>
<rect x="758.9627882573457" y="421.4232351945304" width="41.037211742654335" height="15.160422394844431" style="fill: red"/>
<rect x="758.9627882573457" y="436.5836575893748" width="41.037211742654335" height="65.53137036587867" style="fill: white"/>
<rect x="0" y="467.201291474752" width="90.75078571811605" height="34.913736480501484" style="fill: white"/>
<rect x="90.75078571811605" y="467.201291474752" width="200.10243980828682" height="34.913736480501484" style="fill: red"/>
<rect x="290.85322552640287" y="467.201291474752" width="272.6201219138188" height="34.913736480501484" style="fill: red"/>
<rect x="0" y="502.1150279552535" width="290.85322552640287" height="97.88497204474652" style="fill: yellow"/>
<rect x="290.85322552640287" y="502.1150279552535" width="272.6201219138188" height="97.88497204474652" style="fill: white"/>
<rect x="563.4733474402217" y="502.1150279552535" width="155.78489489423146" height="53.559982517413005" style="fill: red"/>
<rect x="719.2582423344531" y="502.1150279552535" width="39.70454592289252" height="53.559982517413005" style="fill: white"/>
<rect x="758.9627882573457" y="502.1150279552535" width="41.037211742654335" height="97.88497204474652" style="fill: white"/>
<rect x="563.4733474402217" y="555.6750104726665" width="155.78489489423146" height="44.324989527333514" style="fill: white"/>
<rect x="719.2582423344531" y="555.6750104726665" width="39.70454592289252" height="44.324989527333514" style="fill: white"/>
<line x1="160.64779987208047" y1="71.70310544753748" x2="719.2582423344531" y2="71.70310544753748"/>
<line x1="458.597998169936" y1="94.41099812607952" x2="800" y2="94.41099812607952"/>
<line x1="563.4733474402217" y1="112.31643690781765" x2="640.431437825588" y2="112.31643690781765"/>
<line x1="563.4733474402217" y1="128.64414409373893" x2="800" y2="128.64414409373893"/>
<line x1="0" y1="160.73832107261558" x2="800" y2="160.73832107261558"/>
<line x1="0" y1="198.02264701146834" x2="160.64779987208047" y2="198.02264701146834"/>
<line x1="413.21123194467447" y1="296.558667617473" x2="800" y2="296.558667617473"/>
<line x1="0" y1="315.93522121015906" x2="413.21123194467447" y2="315.93522121015906"/>
<line x1="90.75078571811605" y1="371.10851488914835" x2="563.4733474402217" y2="371.10851488914835"/>
<line x1="413.21123194467447" y1="421.4232351945304" x2="800" y2="421.4232351945304"/>
<line x1="758.9627882573457" y1="436.5836575893748" x2="800" y2="436.5836575893748"/>
<line x1="0" y1="467.201291474752" x2="563.4733474402217" y2="467.201291474752"/>
<line x1="0" y1="502.1150279552535" x2="800" y2="502.1150279552535"/>
<line x1="563.4733474402217" y1="555.6750104726665" x2="758.9627882573457" y2="555.6750104726665"/>
<line x1="90.75078571811605" y1="0" x2="90.75078571811605" y2="502.1150279552535"/>
<line x1="160.64779987208047" y1="0" x2="160.64779987208047" y2="315.93522121015906"/>
<line x1="290.85322552640287" y1="467.201291474752" x2="290.85322552640287" y2="600"/>
<line x1="351.02120075201657" y1="0" x2="351.02120075201657" y2="160.73832107261558"/>
<line x1="413.21123194467447" y1="160.73832107261558" x2="413.21123194467447" y2="467.201291474752"/>
<line x1="458.597998169936" y1="0" x2="458.597998169936" y2="467.201291474752"/>
<line x1="563.4733474402217" y1="0" x2="563.4733474402217" y2="600"/>
<line x1="640.431437825588" y1="0" x2="640.431437825588" y2="128.64414409373893"/>
<line x1="686.6423244582053" y1="0" x2="686.6423244582053" y2="128.64414409373893"/>
<line x1="719.2582423344531" y1="0" x2="719.2582423344531" y2="600"/>
<line x1="758.9627882573457" y1="160.73832107261558" x2="758.9627882573457" y2="600"/>
</svg>