<?xml version="1.0" encoding="utf-8"?>
<svg xmlns="http://www.w3.org/2000/svg"
 xmlns:xlink="http://www.w3.org/1999/xlink" width="800" height="600" >
<defs>
    <style type="text/css"><![CDATA[
        line {
        stroke: #000;
        stroke-width: 5px;
        }
    ]]></style></defs>
<rect x="0" y="0" width="223.3738365262173" height="135.6259066260807" style="fill: red"/>
<rect x="223.3738365262173" y="0" width="309.7867127990018" height="38.799555767046435" style="fill: red"/>
<rect x="533.1605493252191" y="0" width="127.54673821314896" height="38.799555767046435" style="fill: red"/>
<rect x="660.7072875383681" y="0" width="139.29271246163194" height="38.799555767046435" style="fill: blue"/>
<rect x="223.3738365262173" y="38.799555767046435" width="309.7867127990018" height="96.82635085903428" style="fill: blue"/>
<rect x="533.1605493252191" y="38.799555767046435" width="127.54673821314896" height="96.82635085903428" style="fill: white"/>
<rect x="660.7072875383681" y="38.799555767046435" width="139.29271246163194" height="24.520447445486028" style="fill: white"/>
<rect x="660.7072875383681" y="63.32000321253246" width="99.54058315649308" height="72.30590341354824" style="fill: white"/>
<rect x="760.2478706948611" y="63.32000321253246" width="39.75212930513885" height="40.26290390454212" style="fill: blue"/>
<rect x="760.2478706948611" y="103.58290711707458" width="39.75212930513885" height="32.04299950900612" style="fill: blue"/>
<rect x="0" y="135.6259066260807" width="223.3738365262173" height="99.41264307317383" style="fill: white"/>
<rect x="223.3738365262173" y="135.6259066260807" width="309.7867127990018" height="99.41264307317383" style="fill: white"/>
<rect x="533.1605493252191" y="135.6259066260807" width="127.54673821314896" height="46.97373576436601" style="fill: white"/>
<rect x="660.7072875383681" y="135.6259066260807" width="99.54058315649308" height="99.41264307317383" style="fill: white"/>
<rect x="760.2478706948611" y="135.6259066260807" width="39.75212930513885" height="99.41264307317383" style="fill: blue"/>
<rect x="533.1605493252191" y="182.59964239044672" width="48.56832694750642" height="52.43890730880781" style="fill: blue"/>
<rect x="581.7288762727255" y="182.59964239044672" width="78.97841126564253" height="52.43890730880781" style="fill: white"/>
<rect x="0" y="235.03854969925453" width="223.3738365262173" height="131.2809509888421" style="fill: blue"/>
<rect x="223.3738365262173" y="235.03854969925453" width="163.89619785582016" height="131.2809509888421" style="fill: white"/>
<rect x="387.27003438203747" y="235.03854969925453" width="194.45884189068806" height="131.2809509888421" style="fill: white"/>
<rect x="581.7288762727255" y="235.03854969925453" width="78.97841126564253" height="131.2809509888421" style="fill: yellow"/>
<rect x="660.7072875383681" y="235.03854969925453" width="139.29271246163194" height="131.2809509888421" style="fill: blue"/>
<rect x="0" y="366.31950068809664" width="67.7074576372818" height="34.94407039204441" style="fill: red"/>
<rect x="67.7074576372818" y="366.31950068809664" width="102.55647719456863" height="34.94407039204441" style="fill: yellow"/>
<rect x="170.26393483185043" y="366.31950068809664" width="53.10990169436687" height="34.94407039204441" style="fill: red"/>
<rect x="223.3738365262173" y="366.31950068809664" width="65.89166847839118" height="50.57659264932596" style="fill: white"/>
<rect x="289.2655050046085" y="366.31950068809664" width="69.84914339014296" height="50.57659264932596" style="fill: white"/>
<rect x="359.11464839475144" y="366.31950068809664" width="222.6142278779741" height="50.57659264932596" style="fill: blue"/>
<rect x="581.7288762727255" y="366.31950068809664" width="78.97841126564253" height="50.57659264932596" style="fill: red"/>
<rect x="660.7072875383681" y="366.31950068809664" width="70.9153570531264" height="50.57659264932596" style="fill: white"/>
<rect x="731.6226445914945" y="366.31950068809664" width="68.37735540850554" height="105.26931847605152" style="fill: white"/>
<rect x="0" y="401.26357108014105" width="67.7074576372818" height="70.32524808400711" style="fill: yellow"/>
<rect x="67.7074576372818" y="401.26357108014105" width="102.55647719456863" height="70.32524808400711" style="fill: white"/>
<rect x="170.26393483185043" y="401.26357108014105" width="53.10990169436687" height="15.63252225728155" style="fill: yellow"/>
<rect x="170.26393483185043" y="416.8960933374226" width="53.10990169436687" height="54.692725826725564" style="fill: red"/>
<rect x="223.3738365262173" y="416.8960933374226" width="65.89166847839118" height="54.692725826725564" style="fill: blue"/>
<rect x="289.2655050046085" y="416.8960933374226" width="69.84914339014296" height="54.692725826725564" style="fill: red"/>
<rect x="359.11464839475144" y="416.8960933374226" width="222.6142278779741" height="54.692725826725564" style="fill: red"/>
<rect x="581.7288762727255" y="416.8960933374226" width="78.97841126564253" height="54.692725826725564" style="fill: red"/>
<rect x="660.7072875383681" y="416.8960933374226" width="70.9153570531264" height="54.692725826725564" style="fill: white"/>
<rect x="0" y="471.58881916414816" width="170.26393483185043" height="24.096721309442103" style="fill: white"/>
<rect x="170.26393483185043" y="471.58881916414816" width="188.850713562901" height="24.096721309442103" style="fill: blue"/>
<rect x="359.11464839475144" y="471.58881916414816" width="59.387712516064596" height="24.096721309442103" style="fill: red"/>
<rect x="418.50236091081604" y="471.58881916414816" width="242.20492662755203" height="24.096721309442103" style="fill: white"/>
<rect x="660.7072875383681" y="471.58881916414816" width="70.9153570531264" height="24.096721309442103" style="fill: blue"/>
<rect x="731.6226445914945" y="471.58881916414816" width="68.37735540850554" height="24.096721309442103" style="fill: white"/>
<rect x="0" y="495.68554047359027" width="111.04425269920775" height="104.31445952640973" style="fill: yellow"/>
<rect x="111.04425269920775" y="495.68554047359027" width="59.21968213264269" height="104.31445952640973" style="fill: white"/>
<rect x="170.26393483185043" y="495.68554047359027" width="490.44335270651766" height="104.31445952640973" style="fill: white"/>
<rect x="660.7072875383681" y="495.68554047359027" width="70.9153570531264" height="104.31445952640973" style="fill: white"/>
<rect x="731.6226445914945" y="495.68554047359027" width="68.37735540850554" height="28.038163868096774" style="fill: white"/>
<rect x="731.6226445914945" y="523.723704341687" width="68.37735540850554" height="76.27629565831296" style="fill: yellow"/>
<line x1="223.3738365262173" y1="38.799555767046435" x2="800" y2="38.799555767046435"/>
<line x1="660.7072875383681" y1="63.32000321253246" x2="800" y2="63.32000321253246"/>
<line x1="760.2478706948611" y1="103.58290711707458" x2="800" y2="103.58290711707458"/>
<line x1="0" y1="135.6259066260807" x2="800" y2="135.6259066260807"/>
<line x1="533.1605493252191" y1="182.59964239044672" x2="660.7072875383681" y2="182.59964239044672"/>
<line x1="0" y1="235.03854969925453" x2="800" y2="235.03854969925453"/>
<line x1="0" y1="366.31950068809664" x2="800" y2="366.31950068809664"/>
<line x1="0" y1="401.26357108014105" x2="223.3738365262173" y2="401.26357108014105"/>
<line x1="170.26393483185043" y1="416.8960933374226" x2="731.6226445914945" y2="416.8960933374226"/>
<line x1="0" y1="471.58881916414816" x2="800" y2="471.58881916414816"/>
<line x1="0" y1="495.68554047359027" x2="800" y2="495.68554047359027"/>
<line x1="731.6226445914945" y1="523.723704341687" x2="800" y2="523.723704341687"/>
<line x1="67.7074576372818" y1="366.31950068809664" x2="67.7074576372818" y2="471.58881916414816"/>
<line x1="111.04425269920775" y1="495.68554047359027" x2="111.04425269920775" y2="600"/>
<line x1="170.26393483185043" y1="366.31950068809664" x2="170.26393483185043" y2="600"/>
<line x1="223.3738365262173" y1="0" x2="223.3738365262173" y2="471.58881916414816"/>
<line x1="289.2655050046085" y1="366.31950068809664" x2="289.2655050046085" y2="471.58881916414816"/>
<line x1="359.11464839475144" y1="366.31950068809664" x2="359.11464839475144" y2="495.68554047359027"/>
<line x1="387.27003438203747" y1="235.03854969925453" x2="387.27003438203747" y2="366.31950068809664"/>
<line x1="418.50236091081604" y1="471.58881916414816" x2="418.50236091081604" y2="495.68554047359027"/>
<line x1="533.1605493252191" y1="0" x2="533.1605493252191" y2="235.03854969925453"/>
<line x1="581.7288762727255" y1="182.59964239044672" x2="581.7288762727255" y2="471.58881916414816"/>
<line x1="660.7072875383681" y1="0" x2="660.7072875383681" y2="600"/>
<line x1="731.6226445914945" y1="366.31950068809664" x2="731.6226445914945" y2="600"/>
<line x1="760.2478706948611" y1="63.32000321253246" x2="760.2478706948611" y2="235.03854969925453"/>
</svg>