<?xml version="1.0" encoding="utf-8"?>

<svg xmlns="http://www.w3.org/2000/svg"
     xmlns:xlink="http://www.w3.org/1999/xlink" width="600" height="450" >
<defs>

<style type="text/css"><![CDATA[

line {
    stroke: #000;
    stroke-width: 5px;
}

]]></style>
</defs>
<rect x="0" y="0" width="135.2969512673467" height="33.23117264000284" style="fill: white"/>
<rect x="135.2969512673467" y="0" width="126.751306174701" height="33.23117264000284" style="fill: red"/>
<rect x="262.0482574420477" y="0" width="264.93661361490905" height="33.23117264000284" style="fill: white"/>
<rect x="526.9848710569568" y="0" width="119.04794087863797" height="110.07642023461509" style="fill: white"/>
<rect x="646.0328119355947" y="0" width="153.96718806440526" height="110.07642023461509" style="fill: red"/>
<rect x="0" y="33.23117264000284" width="135.2969512673467" height="76.84524759461225" style="fill: white"/>
<rect x="135.2969512673467" y="33.23117264000284" width="126.751306174701" height="76.84524759461225" style="fill: red"/>
<rect x="262.0482574420477" y="33.23117264000284" width="264.93661361490905" height="76.84524759461225" style="fill: yellow"/>
<rect x="0" y="110.07642023461509" width="98.92704075254474" height="23.04352964538657" style="fill: white"/>
<rect x="98.92704075254474" y="110.07642023461509" width="36.36991051480197" height="23.04352964538657" style="fill: red"/>
<rect x="135.2969512673467" y="110.07642023461509" width="391.6879197896101" height="23.04352964538657" style="fill: white"/>
<rect x="526.9848710569568" y="110.07642023461509" width="230.24624549083103" height="23.04352964538657" style="fill: yellow"/>
<rect x="757.2311165477878" y="110.07642023461509" width="42.76888345221221" height="23.04352964538657" style="fill: blue"/>
<rect x="0" y="133.11994988000166" width="98.92704075254474" height="30.773627948500803" style="fill: white"/>
<rect x="98.92704075254474" y="133.11994988000166" width="36.36991051480197" height="30.773627948500803" style="fill: white"/>
<rect x="135.2969512673467" y="133.11994988000166" width="283.56771663877953" height="30.773627948500803" style="fill: yellow"/>
<rect x="418.8646679061263" y="133.11994988000166" width="57.06134817523923" height="185.7294524416004" style="fill: blue"/>
<rect x="475.9260160813655" y="133.11994988000166" width="324.0739839186345" height="185.7294524416004" style="fill: white"/>
<rect x="0" y="163.89357782850246" width="66.80740675583338" height="41.93213856221644" style="fill: blue"/>
<rect x="66.80740675583338" y="163.89357782850246" width="32.11963399671136" height="41.93213856221644" style="fill: white"/>
<rect x="98.92704075254474" y="163.89357782850246" width="36.36991051480197" height="41.93213856221644" style="fill: red"/>
<rect x="135.2969512673467" y="163.89357782850246" width="93.93950244585588" height="41.93213856221644" style="fill: white"/>
<rect x="229.2364537132026" y="163.89357782850246" width="189.62821419292368" height="41.93213856221644" style="fill: white"/>
<rect x="0" y="205.8257163907189" width="66.80740675583338" height="93.18035584333413" style="fill: white"/>
<rect x="66.80740675583338" y="205.8257163907189" width="68.48954451151333" height="93.18035584333413" style="fill: red"/>
<rect x="135.2969512673467" y="205.8257163907189" width="93.93950244585588" height="93.18035584333413" style="fill: white"/>
<rect x="229.2364537132026" y="205.8257163907189" width="189.62821419292368" height="93.18035584333413" style="fill: white"/>
<rect x="0" y="299.006072234053" width="66.80740675583338" height="102.16596136573281" style="fill: white"/>
<rect x="66.80740675583338" y="299.006072234053" width="68.48954451151333" height="102.16596136573281" style="fill: white"/>
<rect x="135.2969512673467" y="299.006072234053" width="93.93950244585588" height="102.16596136573281" style="fill: white"/>
<rect x="229.2364537132026" y="299.006072234053" width="189.62821419292368" height="102.16596136573281" style="fill: blue"/>
<rect x="418.8646679061263" y="318.84940232160204" width="28.95215223011894" height="82.32263127818379" style="fill: white"/>
<rect x="447.8168201362452" y="318.84940232160204" width="268.98147666335063" height="53.05126148826503" style="fill: yellow"/>
<rect x="716.7982967995958" y="318.84940232160204" width="83.20170320040415" height="82.32263127818379" style="fill: white"/>
<rect x="447.8168201362452" y="371.90066380986707" width="268.98147666335063" height="29.271369789918765" style="fill: yellow"/>
<rect x="0" y="401.17203359978583" width="135.2969512673467" height="30.715098051929715" style="fill: white"/>
<rect x="135.2969512673467" y="401.17203359978583" width="93.93950244585588" height="30.715098051929715" style="fill: white"/>
<rect x="229.2364537132026" y="401.17203359978583" width="218.58036642304262" height="30.715098051929715" style="fill: white"/>
<rect x="447.8168201362452" y="401.17203359978583" width="268.98147666335063" height="30.715098051929715" style="fill: blue"/>
<rect x="716.7982967995958" y="401.17203359978583" width="83.20170320040415" height="179.62638266230869" style="fill: white"/>
<rect x="0" y="431.88713165171555" width="229.2364537132026" height="105.23830086829787" style="fill: red"/>
<rect x="229.2364537132026" y="431.88713165171555" width="218.58036642304262" height="105.23830086829787" style="fill: yellow"/>
<rect x="447.8168201362452" y="431.88713165171555" width="268.98147666335063" height="84.60677788771807" style="fill: red"/>
<rect x="447.8168201362452" y="516.4939095394336" width="268.98147666335063" height="64.3045067226609" style="fill: blue"/>
<rect x="0" y="537.1254325200134" width="229.2364537132026" height="62.87456747998658" style="fill: white"/>
<rect x="229.2364537132026" y="537.1254325200134" width="218.58036642304262" height="43.6729837420811" style="fill: blue"/>
<rect x="229.2364537132026" y="580.7984162620945" width="218.58036642304262" height="19.20158373790548" style="fill: yellow"/>
<rect x="447.8168201362452" y="580.7984162620945" width="268.98147666335063" height="19.20158373790548" style="fill: white"/>
<rect x="716.7982967995958" y="580.7984162620945" width="83.20170320040415" height="19.20158373790548" style="fill: blue"/>
<line x1="0" y1="33.23117264000284" x2="526.9848710569568" y2="33.23117264000284"/>
<line x1="0" y1="110.07642023461509" x2="800" y2="110.07642023461509"/>
<line x1="0" y1="133.11994988000166" x2="800" y2="133.11994988000166"/>
<line x1="0" y1="163.89357782850246" x2="418.8646679061263" y2="163.89357782850246"/>
<line x1="0" y1="205.8257163907189" x2="418.8646679061263" y2="205.8257163907189"/>
<line x1="0" y1="299.006072234053" x2="418.8646679061263" y2="299.006072234053"/>
<line x1="418.8646679061263" y1="318.84940232160204" x2="800" y2="318.84940232160204"/>
<line x1="447.8168201362452" y1="371.90066380986707" x2="716.7982967995958" y2="371.90066380986707"/>
<line x1="0" y1="401.17203359978583" x2="800" y2="401.17203359978583"/>
<line x1="0" y1="431.88713165171555" x2="716.7982967995958" y2="431.88713165171555"/>
<line x1="447.8168201362452" y1="516.4939095394336" x2="716.7982967995958" y2="516.4939095394336"/>
<line x1="0" y1="537.1254325200134" x2="447.8168201362452" y2="537.1254325200134"/>
<line x1="229.2364537132026" y1="580.7984162620945" x2="800" y2="580.7984162620945"/>
<line x1="66.80740675583338" y1="163.89357782850246" x2="66.80740675583338" y2="401.17203359978583"/>
<line x1="98.92704075254474" y1="110.07642023461509" x2="98.92704075254474" y2="205.8257163907189"/>
<line x1="135.2969512673467" y1="0" x2="135.2969512673467" y2="431.88713165171555"/>
<line x1="229.2364537132026" y1="163.89357782850246" x2="229.2364537132026" y2="600"/>
<line x1="262.0482574420477" y1="0" x2="262.0482574420477" y2="110.07642023461509"/>
<line x1="418.8646679061263" y1="133.11994988000166" x2="418.8646679061263" y2="401.17203359978583"/>
<line x1="447.8168201362452" y1="318.84940232160204" x2="447.8168201362452" y2="600"/>
<line x1="475.9260160813655" y1="133.11994988000166" x2="475.9260160813655" y2="318.84940232160204"/>
<line x1="526.9848710569568" y1="0" x2="526.9848710569568" y2="133.11994988000166"/>
<line x1="646.0328119355947" y1="0" x2="646.0328119355947" y2="110.07642023461509"/>
<line x1="716.7982967995958" y1="318.84940232160204" x2="716.7982967995958" y2="600"/>
<line x1="757.2311165477878" y1="110.07642023461509" x2="757.2311165477878" y2="133.11994988000166"/>
</svg>
