<?xml version="1.0" encoding="utf-8"?>
<svg xmlns="http://www.w3.org/2000/svg"
    xmlns:xlink="http://www.w3.org/1999/xlink" width="600" height="450" >
<defs>

<style type="text/css"><![CDATA[

line {
    stroke: #000;
    stroke-width: 5px;
    fill: none;
}


]]></style>
</defs>
<path d="M0.0,53.58974808692851 L0.0,53.58974808692851 L0.0,112.34840777446409 L76.24857676836723,97.53788181471204 L182.99904511805136,43.896130536075724" style="fill: white"/>
<path d="M122.7570990583841,323.96953603960037 L122.7570990583841,323.96953603960037 L50.11039155415135,331.41130439505474 L0.0,403.374714486202 L0.0,413.31665486172466 L150.25224086359793,390.842492826604" style="fill: red"/>
<path d="M600.0,0.0 L600.0,0.0 L578.3998636020386,0.0 L465.5967479261849,21.9108807516949 L600.0,124.32144750805162" style="fill: blue"/>
<path d="M313.586758999946,331.01494720920726 L313.586758999946,331.01494720920726 L347.01210002686696,240.95935187980533 L289.65192371489945,218.8089156121076 L136.0306513609173,249.5748049968379" style="fill: white"/>
<path d="M0.0,112.34840777446409 L0.0,112.34840777446409 L0.0,177.56595228614708 L154.8894609390192,180.93834049965804 L162.66542436297007,169.771298547355 L9.291188416855633,110.54368704291758" style="fill: blue"/>
<path d="M150.25224086359793,390.842492826604 L150.25224086359793,390.842492826604 L0.0,413.31665486172466 L0.0,450.0 L174.57513799159793,450.0" style="fill: yellow"/>
<path d="M357.2360065961397,52.77080292877313 L357.2360065961397,52.77080292877313 L600.0,129.49461885485178 L600.0,124.32144750805162 L465.5967479261849,21.9108807516949 L344.26549162667646,45.47826780748458" style="fill: red"/>
<path d="M529.4662735644641,430.0329905795557 L529.4662735644641,430.0329905795557 L472.54768481326886,289.4366779433797 L347.01210002686696,240.95935187980533 L313.586758999946,331.01494720920726" style="fill: white"/>
<path d="M0.0,0.0 L0.0,0.0 L0.0,53.58974808692851 L12.239347253471422,52.94141928679353 L297.9018271823546,0.0" style="fill: white"/>
<path d="M182.99904511805136,43.896130536075724 L182.99904511805136,43.896130536075724 L76.24857676836723,97.53788181471204 L415.93406924679556,31.557361026944665" style="fill: blue"/>
<path d="M537.549657662413,450.0 L537.549657662413,450.0 L529.4662735644641,430.0329905795557 L471.1380454756574,403.27942375658165 L308.24041416623015,450.0" style="fill: red"/>
<path d="M590.9449183563373,450.0 L590.9449183563373,450.0 L549.5286582685691,319.1639601098956 L472.54768481326886,289.4366779433797 L537.549657662413,450.0" style="fill: red"/>
<path d="M200.3478770526605,279.0753616191394 L200.3478770526605,279.0753616191394 L114.10009050731733,239.51585507693326 L50.11039155415135,331.41130439505474 L219.49215767624602,314.06021016900286" style="fill: white"/>
<path d="M94.02681671586781,96.35376536715401 L94.02681671586781,96.35376536715401 L176.90851895755048,144.510617719861 L382.35166734339793,131.39559720897466" style="fill: white"/>
<path d="M313.586758999946,331.01494720920726 L313.586758999946,331.01494720920726 L200.3478770526605,279.0753616191394 L279.30807155105794,423.36965505897433" style="fill: blue"/>
<path d="M136.0306513609173,249.5748049968379 L136.0306513609173,249.5748049968379 L289.65192371489945,218.8089156121076 L162.66542436297007,169.771298547355 L114.1000905073174,239.51585507693324" style="fill: white"/>
<path d="M600.0,189.262295537195 L600.0,189.262295537195 L600.0,129.49461885485178 L357.2360065961397,52.77080292877313" style="fill: blue"/>
<path d="M387.44825051704316,132.01501523745895 L387.44825051704316,132.01501523745895 L382.35166734339793,131.39559720897466 L176.90851895755048,144.510617719861 L334.76402008582676,236.22958409352546 L347.01210002686696,240.95935187980538" style="fill: white"/>
<path d="M297.9018271823546,0.0 L297.9018271823546,0.0 L12.239347253471422,52.94141928679353 L415.93406924679556,31.557361026944662 L578.3998636020386,0.0" style="fill: white"/>
<path d="M269.42386215726685,450.0 L269.42386215726685,450.0 L308.24041416623015,450.0 L471.1380454756574,403.27942375658165 L313.586758999946,331.01494720920726" style="fill: blue"/>
<path d="M269.42386215726685,450.0 L269.42386215726685,450.0 L279.30807155105794,423.36965505897433 L219.49215767624602,314.06021016900286 L122.7570990583841,323.96953603960037 L174.57513799159793,450.0" style="fill: blue"/>
<path d="M0.0,187.18125661720902 L0.0,187.18125661720902 L0.0,403.374714486202 L114.10009050731736,239.51585507693326" style="fill: white"/>
<path d="M549.5286582685691,319.1639601098956 L549.5286582685691,319.1639601098956 L520.1703578907452,226.41961884879157 L405.3649993541223,123.48671228556626 L472.54768481326886,289.4366779433797" style="fill: red"/>
<path d="M600.0,297.99377877431783 L600.0,297.99377877431783 L520.1703578907452,226.41961884879157 L590.9449183563373,450.0 L600.0,450.0" style="fill: white"/>
<path d="M0.0,187.18125661720902 L0.0,187.18125661720902 L114.1000905073174,239.51585507693324 L154.8894609390192,180.93834049965804 L0.0,177.56595228614708" style="fill: blue"/>
<path d="M411.23975098427337,128.75393385376162 L411.23975098427337,128.75393385376162 L535.650429236944,153.08242866727926 L344.26549162667646,45.47826780748456 L322.9720319099058,49.61431009541094" style="fill: blue"/>
<path d="M387.44825051704316,132.01501523745895 L387.44825051704316,132.01501523745895 L347.01210002686696,240.95935187980538 L472.54768481326886,289.4366779433797 L409.92339968948806,134.74655362621218" style="fill: yellow"/>
<path d="M600.0,297.99377877431783 L600.0,297.99377877431783 L600.0,189.262295537195 L535.650429236944,153.08242866727926 L411.23975098427337,128.75393385376162" style="fill: yellow"/>
<path d="M405.3649993541223,123.48671228556626 L405.3649993541223,123.48671228556626 L322.9720319099058,49.61431009541094 L86.84093291478143,95.48042222227947 L409.92339968948806,134.74655362621218" style="fill: white"/>
<path d="M9.291188416855633,110.54368704291758 L9.291188416855633,110.54368704291758 L334.76402008582676,236.22958409352546 L94.02681671586781,96.35376536715401 L86.84093291478146,95.48042222227947" style="fill: white"/>
<line x1="578.3998636020386" y1="0.0" x2="0.0" y2="112.34840777446409"/>
<line x1="600.0" y1="297.99377877431783" x2="322.9720319099058" y2="49.61431009541094"/>
<line x1="590.9449183563373" y1="450.0" x2="520.1703578907452" y2="226.41961884879157"/>
<line x1="415.93406924679556" y1="31.557361026944662" x2="0.0" y2="53.58974808692851"/>
<line x1="549.5286582685691" y1="319.1639601098956" x2="9.291188416855633" y2="110.54368704291758"/>
<line x1="405.3649993541223" y1="123.48671228556631" x2="537.549657662413" y2="450.0"/>
<line x1="86.84093291478146" y1="95.48042222227947" x2="409.923399689488" y2="134.74655362621218"/>
<line x1="529.4662735644641" y1="430.0329905795557" x2="0.0" y2="187.18125661720902"/>
<line x1="162.66542436297007" y1="169.771298547355" x2="0.0" y2="403.374714486202"/>
<line x1="344.2654916266764" y1="45.478267807484556" x2="600.0" y2="189.262295537195"/>
<line x1="600.0" y1="129.49461885485178" x2="357.2360065961396" y2="52.770802928773094"/>
<line x1="182.99904511805136" y1="43.896130536075724" x2="76.24857676836724" y2="97.53788181471202"/>
<line x1="269.42386215726685" y1="450.0" x2="387.44825051704316" y2="132.01501523745895"/>
<line x1="297.9018271823546" y1="0.0" x2="12.239347253471422" y2="52.94141928679353"/>
<line x1="471.13804547565735" y1="403.27942375658165" x2="308.24041416623015" y2="450.0"/>
<line x1="154.8894609390192" y1="180.93834049965804" x2="0.0" y2="177.56595228614708"/>
<line x1="94.02681671586782" y1="96.35376536715403" x2="334.7640200858264" y2="236.22958409352532"/>
<line x1="176.90851895755048" y1="144.510617719861" x2="382.35166734339793" y2="131.39559720897466"/>
<line x1="200.34787705266046" y1="279.07536161913936" x2="279.30807155105794" y2="423.36965505897433"/>
<line x1="465.5967479261849" y1="21.910880751694894" x2="600.0" y2="124.32144750805162"/>
<line x1="535.650429236944" y1="153.08242866727923" x2="411.23975098427337" y2="128.75393385376162"/>
<line x1="219.49215767624602" y1="314.06021016900286" x2="50.11039155415138" y2="331.41130439505474"/>
<line x1="136.0306513609173" y1="249.5748049968379" x2="289.6519237148994" y2="218.8089156121076"/>
<line x1="122.7570990583841" y1="323.96953603960037" x2="174.57513799159793" y2="450.0"/>
<line x1="0.0" y1="413.31665486172466" x2="150.25224086359793" y2="390.842492826604"/>
</svg>
